# xmcd
#
# Track frame offsets: 
#        212
#        11425
#        21400
#        34152
#        44180
#        56350
#        69177
#        80825
#        92235
#        102317
#        115245
#        127565
#
# Disc length: 1837 seconds
#
# Revision: 1
# Processed by: cddbd v1.5.2PL0 Copyright (c) Steve Scherf et al.
# Submitted via: ExactAudioCopy v0.99pb5
#
DISCID=99072b0c
DTITLE=John Lee Hooker - Travelin'
DYEAR=1960
DGENRE=
TTITLE0=No Shoes
TTITLE1=I Wanna Walk
TTITLE2=Canal Street Blues
TTITLE3=Run On
TTITLE4=I'm a Stranger
TTITLE5=Whiskey and Wimmen
TTITLE6=Solid Sender
TTITLE7=Sunny Land
TTITLE8=Goin' to California
TTITLE9=I Can't Believe
TTITLE10=I'll Know Tonight
TTITLE11=Dusty Road
EXTD=
EXTT0=
EXTT1=
EXTT2=
EXTT3=
EXTT4=
EXTT5=
EXTT6=
EXTT7=
EXTT8=
EXTT9=
EXTT10=
EXTT11=
PLAYORDER=
